# xmcd
#
# Track frame offsets:
#	182
#	16677
#	39952
#	55222
#	66057
#	81067
#	98355
#	115100
#	129832
#	141637
#
# Disc length: 2101 seconds
#
# Revision: 0
# Processed by: cddbd v1.5PL3 Copyright (c) Steve Scherf et al.
# Submitted via: dBpowerAMP V4.0
#
DISCID=7308330a
DTITLE=Papa John Creach - Rock Father
DYEAR=1976
DGENRE=Blues
TTITLE0=Travelin' On
TTITLE1=High Gear
TTITLE2=Old Man River
TTITLE3=Slow Groove
TTITLE4=J.V. And Me
TTITLE5=Straight Ahead
TTITLE6=I Like All Kinds of Music
TTITLE7=Brand New Day
TTITLE8=Jump Up, Gimme Some Dancing
TTITLE9=Orange Blossom Special
EXTD=
EXTT0=
EXTT1=
EXTT2=
EXTT3=
EXTT4=
EXTT5=
EXTT6=
EXTT7=
EXTT8=
EXTT9=
PLAYORDER=
